# Blender 3.4.0
# www.blender.org
mtllib table_large_2.mtl
o table_large_2
v -0.850002 0.920000 0.450000
v -0.850002 0.970000 0.450000
v -0.850003 0.920000 -0.450000
v -0.850002 0.970000 -0.450000
v 0.849999 0.920000 0.450000
v 0.849999 0.970000 0.450000
v 0.849999 0.920000 -0.450000
v 0.849998 0.970000 -0.450000
v -0.728127 0.920000 0.360000
v -0.728127 0.920000 0.340000
v 0.728125 0.920000 0.360000
v 0.728125 0.920000 0.340000
v -0.728127 0.920000 -0.340000
v -0.728127 0.920000 -0.360000
v 0.728125 0.920000 -0.340000
v 0.728125 0.920000 -0.360000
v -0.760000 0.920000 -0.328126
v -0.740000 0.920000 -0.328126
v -0.760000 0.920000 0.328126
v -0.740000 0.920000 0.328126
v 0.740000 0.920000 -0.328126
v 0.760000 0.920000 -0.328126
v 0.740000 0.920000 0.328126
v 0.760000 0.920000 0.328126
v -0.767499 0.000000 0.367499
v -0.781874 0.920000 0.381874
v -0.767499 0.000000 0.332501
v -0.781874 0.920000 0.318126
v -0.732501 0.000000 0.367499
v -0.718126 0.920000 0.381874
v -0.732501 0.000000 0.332501
v -0.718126 0.920000 0.318126
v 0.767499 0.000000 -0.332501
v -0.728127 0.845000 0.360000
v -0.728127 0.845000 0.340000
v 0.781874 0.920000 -0.318126
v 0.728125 0.845000 0.360000
v 0.767499 0.000000 -0.367499
v 0.781874 0.920000 -0.381874
v 0.728125 0.845000 0.340000
v 0.781874 0.920000 0.318126
v -0.728127 0.845000 -0.340000
v -0.728127 0.845000 -0.360000
v 0.767499 0.000000 0.332501
v 0.728125 0.845000 -0.340000
v 0.781874 0.920000 0.381874
v 0.767499 0.000000 0.367499
v 0.728125 0.845000 -0.360000
v 0.718126 0.920000 0.318126
v 0.740000 0.845000 -0.328126
v 0.760000 0.845000 -0.328126
v 0.732501 0.000000 0.332501
v 0.740000 0.845000 0.328126
v 0.718126 0.920000 0.381874
v 0.732501 0.000000 0.367499
v 0.760000 0.845000 0.328126
v 0.732501 0.000000 -0.332501
v -0.760000 0.845000 -0.328126
v -0.740000 0.845000 -0.328126
v 0.718126 0.920000 -0.318126
v -0.760000 0.845000 0.328126
v 0.732501 0.000000 -0.367499
v 0.718126 0.920000 -0.381874
v -0.740000 0.845000 0.328126
v -0.732501 0.000000 -0.332501
v -0.718126 0.920000 -0.318126
v -0.732501 0.000000 -0.367499
v -0.718126 0.920000 -0.381874
v -0.767499 0.000000 -0.332501
v -0.781874 0.920000 -0.318126
v -0.767499 0.000000 -0.367499
v -0.781874 0.920000 -0.381874
vn -0.0000 1.0000 -0.0000
vn -0.0000 -0.0000 1.0000
vn 1.0000 -0.0000 -0.0000
vn -1.0000 -0.0000 -0.0000
vn -0.0000 -0.0000 -1.0000
vn -0.0000 -1.0000 -0.0000
vn -0.0000 -0.0156 0.9999
vn 0.9999 -0.0156 -0.0000
vn -0.9999 -0.0156 -0.0000
vn -0.0000 -0.0156 -0.9999
vt 0.566667 0.016667
vt -0.036767 0.016667
vt -0.092665 1.105896
vt 1.040668 0.505896
vt 0.566667 -0.016667
vt -0.036767 -0.016667
vt 0.563233 0.016667
vt 0.566667 -0.016667
vt -0.092665 0.505896
vt 1.040668 -0.094104
vt 0.563233 -0.016667
vt 0.566667 0.016667
vt -0.566667 0.016667
vt -0.563233 -0.016667
vt 1.040668 1.105896
vt -0.092665 0.505896
vt -0.566667 -0.016667
vt -0.563233 0.016667
vt 0.036767 -0.016667
vt -0.566667 -0.016667
vt 1.040668 0.505896
vt -0.092665 -0.094104
vt 0.036767 0.016667
vt -0.566667 0.016667
vt 0.014584 0.790000
vt 0.014584 0.790000
vt 0.985418 0.790000
vt 0.985418 0.790000
vt 0.014584 0.790000
vt 0.014584 0.790000
vt 0.985418 0.790000
vt 0.985418 0.790000
vt 0.718751 0.789998
vt 0.718751 0.789998
vt 0.281250 0.789998
vt 0.281250 0.789998
vt 0.718751 0.789998
vt 0.718751 0.789998
vt 0.281250 0.789998
vt 0.281250 0.789998
vt 0.761667 0.994999
vt 0.193335 0.994999
vt 0.176667 0.744999
vt 0.806668 1.004583
vt 0.790000 0.754583
vt 0.738335 0.994999
vt 0.176667 0.721668
vt 0.193335 0.994999
vt 0.790000 0.712084
vt 0.806668 1.004583
vt 0.761667 0.971667
vt 0.193335 0.971667
vt 0.176667 0.744999
vt 0.806668 0.962084
vt 0.790000 0.754583
vt 0.738335 0.971667
vt 0.176667 0.721668
vt 0.193335 0.971667
vt 0.790000 0.712084
vt 0.806668 0.962084
vt 0.176667 0.278333
vt 0.193335 -0.028333
vt 0.295000 -0.028333
vt 0.014584 0.740000
vt 0.014584 0.740000
vt 0.014584 0.726667
vt 0.790000 0.287916
vt 0.806668 -0.037916
vt 0.985418 0.740000
vt 0.193335 -0.028333
vt 0.176667 0.255001
vt 0.271669 -0.028333
vt 0.806668 -0.037916
vt 0.790000 0.245417
vt 0.985418 0.740000
vt 0.985418 0.726667
vt 0.806668 -0.037916
vt 0.790000 0.712084
vt 0.014584 0.273333
vt 0.014584 0.740000
vt 0.014584 0.260000
vt 0.014584 0.740000
vt 0.193335 -0.028333
vt 0.176667 0.721668
vt 0.738336 -0.028333
vt 0.985418 0.273333
vt 0.985418 0.740000
vt 0.806668 -0.037916
vt 0.790000 0.754583
vt 0.193335 -0.028333
vt 0.176667 0.744999
vt 0.761667 -0.028333
vt 0.985418 0.260000
vt 0.985418 0.740000
vt 0.790000 0.712084
vt 0.806668 0.004583
vt 0.718751 0.993332
vt 0.718751 0.739998
vt 0.718751 1.006665
vt 0.718751 0.739998
vt 0.176667 0.721668
vt 0.193335 -0.005001
vt 0.738335 -0.005001
vt 0.281250 0.993332
vt 0.281250 0.739998
vt 0.790000 0.754583
vt 0.806668 0.004583
vt 0.176667 0.744999
vt 0.193335 -0.005001
vt 0.761667 -0.005001
vt 0.281250 1.006666
vt 0.281250 0.739998
vt 0.176667 0.278333
vt 0.193335 -0.005001
vt 0.295000 -0.005001
vt 0.718751 0.739998
vt 0.718751 -0.006668
vt 0.718751 0.739998
vt 0.718751 0.006666
vt 0.790000 0.287916
vt 0.806668 0.004583
vt 0.281250 0.739998
vt 0.281250 -0.006668
vt 0.193335 -0.005001
vt 0.176667 0.255001
vt 0.271669 -0.005001
vt 0.806668 0.004583
vt 0.790000 0.245417
vt 0.281250 0.739998
vt 0.281250 0.006666
vt 0.176667 0.278333
vt 0.193335 0.971667
vt 0.295000 0.971667
vt 0.790000 0.287916
vt 0.806668 0.962084
vt 0.193335 0.971667
vt 0.176667 0.255001
vt 0.271669 0.971667
vt 0.806668 0.962084
vt 0.790000 0.245417
vt 0.176667 0.278333
vt 0.193335 0.994999
vt 0.295000 0.994999
vt 0.790000 0.287916
vt 0.806668 1.004583
vt 0.193335 0.994999
vt 0.176667 0.255001
vt 0.271669 0.994999
vt 0.806668 1.004583
vt 0.790000 0.245417
s 1
usemtl wood_1
f 6/16/1 8/22/1 4/10/1 2/4/1
f 5/13/2 6/17/2 2/5/2 1/1/2
f 7/19/3 8/23/3 6/18/3 5/14/3
f 1/2/4 2/6/4 4/11/4 3/7/4
f 3/8/5 4/12/5 8/24/5 7/20/5
f 3/9/6 7/21/6 5/15/6 1/3/6
f 43/81/6 48/93/6 45/86/6 42/79/6
f 35/65/5 10/26/5 12/28/5 40/75/5
f 37/69/2 11/27/2 9/25/2 34/64/2
f 51/99/6 56/111/6 53/104/6 50/97/6
f 43/82/5 14/30/5 16/32/5 48/94/5
f 45/87/2 15/31/2 13/29/2 42/80/2
f 59/118/3 18/34/3 20/36/3 64/129/3
f 61/122/4 19/35/4 17/33/4 58/116/4
f 51/100/3 22/38/3 24/40/3 56/112/3
f 53/105/4 23/39/4 21/37/4 50/98/4
f 27/46/6 31/56/6 29/51/6 25/41/6
f 29/52/7 30/54/7 26/44/7 25/42/7
f 31/57/8 32/59/8 30/55/8 29/53/8
f 25/43/9 26/45/9 28/49/9 27/47/9
f 27/48/10 28/50/10 32/60/10 31/58/10
f 40/76/6 37/69/6 34/64/6 35/66/6
f 55/108/9 54/106/9 49/95/9 52/101/9
f 52/102/10 49/96/10 41/77/10 44/83/10
f 47/90/7 46/88/7 54/107/7 55/109/7
f 44/84/8 41/78/8 46/89/8 47/91/8
f 52/103/6 44/85/6 47/92/6 55/110/6
f 62/124/10 63/127/10 39/73/10 38/70/10
f 64/130/6 61/123/6 58/117/6 59/119/6
f 57/113/9 60/120/9 63/128/9 62/125/9
f 38/71/8 39/74/8 36/67/8 33/61/8
f 33/62/7 36/68/7 60/121/7 57/114/7
f 62/126/6 38/72/6 33/63/6 57/115/6
f 71/146/10 72/149/10 68/139/10 67/136/10
f 69/141/9 70/144/9 72/150/9 71/147/9
f 67/137/8 68/140/8 66/134/8 65/131/8
f 65/132/7 66/135/7 70/145/7 69/142/7
f 71/148/6 67/138/6 65/133/6 69/143/6
